<svg width="315" height="110" viewBox="0 0 315 110" fill="none" xmlns="http://www.w3.org/2000/svg">
<mask id="path-1-inside-1_2_65" fill="white">
<rect width="300" height="110" rx="10"/>
</mask>
<rect width="300" height="110" rx="10" fill="#EEC3FA" stroke="black" stroke-width="24" mask="url(#path-1-inside-1_2_65)"/>
<path d="M300 30H310C312.761 30 315 32.2386 315 35V75C315 77.7614 312.761 80 310 80H300V30Z" fill="black"/>
<path d="M53.3716 55.9082C53.3716 57.4691 53.0981 58.8363 52.5513 60.0098C52.0158 61.1719 51.2752 62.1403 50.3296 62.915C49.3953 63.6898 48.2959 64.2708 47.0312 64.6582C45.778 65.0456 44.4279 65.2393 42.981 65.2393C42.4227 65.2393 41.8075 65.1652 41.1353 65.0171C40.4744 64.869 39.8022 64.6867 39.1187 64.4702C38.4351 64.2424 37.7743 64.0031 37.1362 63.7524C36.5096 63.4904 35.9513 63.2454 35.4614 63.0176L36.2134 55.9766C37.1818 56.5576 38.2528 57.002 39.4263 57.3096C40.6112 57.6058 41.7733 57.7539 42.9126 57.7539C43.1291 57.7539 43.3911 57.7482 43.6987 57.7368C44.0063 57.714 44.2969 57.6628 44.5703 57.583C44.8551 57.4919 45.0944 57.3608 45.2881 57.1899C45.4818 57.019 45.5786 56.7741 45.5786 56.4551C45.5786 56.2386 45.5103 56.0563 45.3735 55.9082C45.2368 55.7487 45.0602 55.6234 44.8438 55.5322C44.6273 55.4297 44.3823 55.3556 44.1089 55.3101C43.8354 55.2531 43.5677 55.2132 43.3057 55.1904C43.0436 55.1676 42.7987 55.1562 42.5708 55.1562C42.3429 55.1562 42.1606 55.1562 42.0239 55.1562C41.0441 55.1562 40.1497 54.9854 39.3408 54.6436C38.5433 54.3018 37.854 53.8289 37.2729 53.2251C36.7033 52.6099 36.259 51.8864 35.9399 51.0547C35.6209 50.2116 35.4614 49.3001 35.4614 48.3203C35.4614 46.9759 35.7292 45.7739 36.2646 44.7144C36.8115 43.6434 37.535 42.7376 38.4351 41.9971C39.3465 41.2451 40.389 40.6698 41.5625 40.271C42.736 39.8722 43.9494 39.6729 45.2026 39.6729C45.7609 39.6729 46.3363 39.6956 46.9287 39.7412C47.5212 39.7754 48.1079 39.8438 48.689 39.9463C49.2814 40.0488 49.8568 40.1799 50.415 40.3394C50.9733 40.4989 51.5031 40.6982 52.0044 40.9375L51.355 47.876C50.5802 47.6139 49.7656 47.3975 48.9111 47.2266C48.068 47.0443 47.242 46.9531 46.4331 46.9531C46.285 46.9531 46.0913 46.9588 45.8521 46.9702C45.6242 46.9702 45.3792 46.9873 45.1172 47.0215C44.8665 47.0443 44.6102 47.0841 44.3481 47.1411C44.0861 47.1981 43.8525 47.2778 43.6475 47.3804C43.4424 47.4715 43.2772 47.5968 43.1519 47.7563C43.0265 47.9159 42.9696 48.1038 42.981 48.3203C42.9924 48.571 43.0835 48.776 43.2544 48.9355C43.4367 49.0837 43.6646 49.2033 43.938 49.2944C44.2228 49.3742 44.5304 49.4312 44.8608 49.4653C45.2026 49.4995 45.5387 49.5223 45.8691 49.5337C46.1995 49.5337 46.5072 49.5337 46.792 49.5337C47.0768 49.5223 47.3104 49.528 47.4927 49.5508C48.4041 49.6077 49.2244 49.8014 49.9536 50.1318C50.6828 50.4622 51.298 50.9009 51.7993 51.4478C52.312 51.9946 52.6994 52.6497 52.9614 53.4131C53.2349 54.165 53.3716 54.9967 53.3716 55.9082ZM84.3384 53.4131C84.3384 55.0423 84.2871 56.6659 84.1846 58.2837C84.082 59.9015 83.9624 61.5251 83.8257 63.1543L75.0415 63.5645C75.3035 61.582 75.5371 59.5996 75.7422 57.6172C75.9587 55.6234 76.0669 53.6296 76.0669 51.6357C76.0669 51.5104 76.0612 51.2939 76.0498 50.9863C76.0384 50.6673 76.0156 50.3084 75.9814 49.9097C75.9587 49.5109 75.9188 49.1007 75.8618 48.6792C75.8162 48.2463 75.7479 47.8532 75.6567 47.5C75.577 47.1354 75.4744 46.8392 75.3491 46.6113C75.2238 46.3835 75.0757 46.2695 74.9048 46.2695C74.506 46.2695 74.1927 46.4233 73.9648 46.731C73.737 47.0272 73.5661 47.3861 73.4521 47.8076C73.3496 48.2292 73.2869 48.6621 73.2642 49.1064C73.2414 49.5394 73.23 49.8926 73.23 50.166C73.23 50.6445 73.2414 51.123 73.2642 51.6016C73.2869 52.0801 73.2983 52.57 73.2983 53.0713C73.2983 54.8372 73.2528 56.5975 73.1616 58.3521C73.0819 60.1066 72.9793 61.8669 72.854 63.6328L64.7534 63.9404C65.0155 61.958 65.2433 59.9813 65.437 58.0103C65.6421 56.0278 65.7446 54.0397 65.7446 52.0459C65.7446 51.9206 65.7389 51.6927 65.7275 51.3623C65.7161 51.0319 65.6934 50.6616 65.6592 50.2515C65.6364 49.8413 65.5965 49.4141 65.5396 48.9697C65.4826 48.5254 65.4085 48.1209 65.3174 47.7563C65.2376 47.3804 65.1351 47.0728 65.0098 46.8335C64.8844 46.5942 64.7306 46.4746 64.5483 46.4746C64.2635 46.4746 64.0243 46.5885 63.8306 46.8164C63.6369 47.0329 63.4774 47.3177 63.3521 47.6709C63.2381 48.0241 63.147 48.4172 63.0786 48.8501C63.0216 49.2716 62.9761 49.6875 62.9419 50.0977C62.9191 50.5078 62.902 50.8895 62.8906 51.2427C62.8906 51.5845 62.8849 51.8408 62.8735 52.0117L62.4976 64.4873H53.8843C54.0666 62.5618 54.2489 60.6307 54.4312 58.6938C54.6248 56.757 54.79 54.8258 54.9268 52.9004C55.0749 50.9635 55.1945 49.0267 55.2856 47.0898C55.3768 45.153 55.4224 43.2161 55.4224 41.2793L63.5571 40.9375L63.5229 42.9199C63.7736 42.6009 64.0584 42.2819 64.3774 41.9629C64.6965 41.6325 65.0326 41.342 65.3857 41.0913C65.7503 40.8293 66.132 40.6185 66.5308 40.459C66.9409 40.2995 67.3625 40.2197 67.7954 40.2197C68.3537 40.2197 68.855 40.2653 69.2993 40.3564C69.7437 40.4362 70.1424 40.5786 70.4956 40.7837C70.8602 40.9888 71.1792 41.2736 71.4526 41.6382C71.7261 41.9914 71.9653 42.4414 72.1704 42.9883C72.535 42.5895 72.8996 42.2192 73.2642 41.8774C73.6401 41.5356 74.0332 41.2451 74.4434 41.0059C74.8535 40.7552 75.2979 40.5615 75.7764 40.4248C76.2549 40.2881 76.7847 40.2197 77.3657 40.2197C78.4709 40.2197 79.4108 40.4362 80.1855 40.8691C80.9603 41.2907 81.604 41.8547 82.1167 42.561C82.6408 43.2674 83.0452 44.0763 83.3301 44.9878C83.6263 45.8993 83.8485 46.8449 83.9966 47.8247C84.1447 48.8045 84.2358 49.7786 84.27 50.7471C84.3156 51.7155 84.3384 52.6042 84.3384 53.4131ZM107.461 63.5303L98.9844 64.624L97.959 60.7617H94.0625L93.208 64.624L84.4922 63.7695L91.2939 41.0059L100.796 40.5273L107.461 63.5303ZM97.3438 55.5322L96.0449 49.585L94.7803 55.5322H97.3438ZM127.849 48.5254C127.849 49.4141 127.769 50.223 127.61 50.9521C127.462 51.6699 127.222 52.3307 126.892 52.9346C126.562 53.5384 126.134 54.0967 125.61 54.6094C125.086 55.1221 124.454 55.612 123.713 56.0791L127.781 63.3252L120.09 64.8291L117.458 57.5488L115.339 57.6172L115.032 64.7266H107.683C107.74 62.1289 107.791 59.5426 107.837 56.9678C107.894 54.3929 107.957 51.8066 108.025 49.209C108.048 47.8988 108.07 46.5999 108.093 45.3125C108.116 44.0251 108.162 42.7262 108.23 41.416C109.028 41.1198 109.814 40.8748 110.588 40.6812C111.363 40.4875 112.138 40.3394 112.913 40.2368C113.699 40.1229 114.491 40.0488 115.288 40.0146C116.097 39.9691 116.923 39.9463 117.766 39.9463C119.065 39.9463 120.318 40.1286 121.526 40.4932C122.745 40.8464 123.822 41.3818 124.756 42.0996C125.69 42.8174 126.436 43.7118 126.995 44.7827C127.564 45.8537 127.849 47.1012 127.849 48.5254ZM120.193 49.0723C120.193 48.5938 120.125 48.1551 119.988 47.7563C119.862 47.3576 119.669 47.0158 119.407 46.731C119.156 46.4347 118.837 46.2069 118.45 46.0474C118.074 45.8765 117.629 45.791 117.117 45.791C116.889 45.791 116.667 45.8081 116.45 45.8423C116.234 45.8651 116.023 45.9049 115.818 45.9619L115.544 52.3193H115.955C116.444 52.3193 116.94 52.2567 117.441 52.1313C117.954 52.006 118.41 51.8123 118.809 51.5503C119.219 51.2882 119.549 50.9521 119.8 50.542C120.062 50.1318 120.193 49.6419 120.193 49.0723ZM147.144 40.9033L146.973 48.1494L141.88 48.3545L141.265 64.2139L134.053 64.5898L133.403 48.7305L128.311 49.0039L128.516 40.9375L147.144 40.9033ZM168.027 49.2432C168.027 50.3483 167.862 51.3281 167.532 52.1826C167.201 53.0371 166.746 53.7891 166.165 54.4385C165.595 55.0765 164.923 55.6177 164.148 56.062C163.373 56.495 162.542 56.8538 161.653 57.1387C160.776 57.4121 159.864 57.6172 158.918 57.7539C157.973 57.8792 157.044 57.9476 156.133 57.959V65.2393H148.169C148.169 63.9404 148.169 62.6758 148.169 61.4453C148.18 60.2148 148.186 58.9958 148.186 57.7881C148.197 56.569 148.203 55.3442 148.203 54.1138C148.215 52.8833 148.226 51.613 148.237 50.3027C148.26 48.9128 148.266 47.5228 148.254 46.1328C148.243 44.7428 148.271 43.3415 148.34 41.9287C149.798 41.4958 151.257 41.1711 152.715 40.9546C154.173 40.7381 155.677 40.6299 157.227 40.6299C158.104 40.6299 158.981 40.7039 159.858 40.8521C160.736 40.9888 161.573 41.2109 162.371 41.5186C163.18 41.8262 163.926 42.2135 164.609 42.6807C165.304 43.1364 165.903 43.6833 166.404 44.3213C166.905 44.9593 167.298 45.6885 167.583 46.5088C167.879 47.3291 168.027 48.2406 168.027 49.2432ZM160.439 49.8242C160.439 49.0837 160.212 48.5083 159.756 48.0981C159.312 47.6766 158.73 47.4658 158.013 47.4658C157.773 47.4658 157.523 47.4886 157.261 47.5342C157.01 47.5684 156.771 47.6139 156.543 47.6709L156.338 52.6611C156.497 52.6839 156.651 52.6953 156.799 52.6953C156.947 52.6953 157.101 52.6953 157.261 52.6953C157.671 52.6953 158.064 52.627 158.44 52.4902C158.827 52.3535 159.169 52.1598 159.465 51.9092C159.762 51.6471 159.995 51.3452 160.166 51.0034C160.348 50.6502 160.439 50.2572 160.439 49.8242ZM189.287 64.3164L180.742 64.7266L180.674 57.5146H176.743L176.504 65H168.848L169.497 40.9717L177.632 41.3477L177.119 53.6182H180.913L180.947 40.7666L188.74 40.9717L189.287 64.3164ZM212.034 51.9092C212.034 52.946 211.914 53.9486 211.675 54.917C211.436 55.874 211.088 56.7741 210.632 57.6172C210.188 58.4603 209.641 59.235 208.992 59.9414C208.354 60.6364 207.63 61.2345 206.821 61.7358C206.024 62.2371 205.152 62.6302 204.207 62.915C203.261 63.1885 202.258 63.3252 201.199 63.3252C200.173 63.3252 199.194 63.1942 198.259 62.9321C197.336 62.6701 196.471 62.3055 195.662 61.8384C194.853 61.3599 194.118 60.7902 193.457 60.1294C192.808 59.4572 192.249 58.7166 191.782 57.9077C191.326 57.0874 190.968 56.2101 190.706 55.2759C190.455 54.3416 190.33 53.3675 190.33 52.3535C190.33 51.3623 190.449 50.3939 190.688 49.4482C190.928 48.4912 191.27 47.5911 191.714 46.748C192.17 45.9049 192.716 45.1302 193.354 44.4238C193.993 43.7174 194.705 43.1079 195.491 42.5952C196.288 42.0825 197.148 41.6838 198.071 41.3989C198.994 41.1141 199.968 40.9717 200.994 40.9717C202.646 40.9717 204.15 41.228 205.505 41.7407C206.873 42.2534 208.035 42.9883 208.992 43.9453C209.96 44.891 210.706 46.0417 211.23 47.3975C211.766 48.7419 212.034 50.2458 212.034 51.9092ZM204.446 52.3535C204.446 51.8636 204.372 51.3908 204.224 50.9351C204.087 50.4679 203.882 50.0578 203.608 49.7046C203.335 49.34 202.993 49.0495 202.583 48.833C202.184 48.6051 201.723 48.4912 201.199 48.4912C200.663 48.4912 200.185 48.5881 199.763 48.7817C199.342 48.9754 198.977 49.2432 198.669 49.585C198.373 49.9154 198.145 50.3084 197.986 50.7642C197.826 51.2085 197.747 51.6813 197.747 52.1826C197.747 52.6611 197.815 53.1396 197.952 53.6182C198.088 54.0967 198.293 54.5296 198.567 54.917C198.84 55.3044 199.176 55.6177 199.575 55.8569C199.985 56.0962 200.458 56.2158 200.994 56.2158C201.529 56.2158 202.008 56.1133 202.429 55.9082C202.862 55.6917 203.227 55.4069 203.523 55.0537C203.819 54.6891 204.047 54.2733 204.207 53.8062C204.366 53.339 204.446 52.8548 204.446 52.3535ZM234.233 56.3525C234.233 57.64 234.216 58.916 234.182 60.1807C234.159 61.4339 234.119 62.6986 234.062 63.9746L224.219 63.8037C224.561 61.7871 224.857 59.7762 225.107 57.771C225.358 55.7544 225.483 53.7207 225.483 51.6699C225.483 51.5218 225.478 51.2826 225.466 50.9521C225.455 50.6217 225.432 50.2515 225.398 49.8413C225.364 49.4198 225.312 48.9925 225.244 48.5596C225.187 48.1152 225.102 47.7108 224.988 47.3462C224.885 46.9816 224.754 46.6854 224.595 46.4575C224.447 46.2183 224.264 46.0986 224.048 46.0986C223.66 46.0986 223.33 46.2126 223.057 46.4404C222.795 46.6683 222.572 46.9645 222.39 47.3291C222.219 47.6823 222.083 48.0811 221.98 48.5254C221.877 48.9697 221.798 49.4141 221.741 49.8584C221.695 50.3027 221.661 50.7243 221.638 51.123C221.627 51.5104 221.621 51.8294 221.621 52.0801C221.564 54.0967 221.519 56.1019 221.484 58.0957C221.45 60.0781 221.405 62.0833 221.348 64.1113L212.632 64.4873C212.86 60.4655 213.076 56.4665 213.281 52.4902C213.498 48.514 213.669 44.515 213.794 40.4932L221.86 40.083L221.792 42.8174C222.111 42.43 222.453 42.0654 222.817 41.7236C223.193 41.3818 223.592 41.0913 224.014 40.8521C224.435 40.6014 224.88 40.4077 225.347 40.271C225.825 40.1229 226.326 40.0488 226.851 40.0488C227.819 40.0488 228.668 40.2083 229.397 40.5273C230.126 40.8464 230.753 41.2793 231.277 41.8262C231.801 42.373 232.24 43.0225 232.593 43.7744C232.946 44.515 233.231 45.3068 233.447 46.1499C233.664 46.993 233.829 47.876 233.943 48.7988C234.057 49.7103 234.131 50.6104 234.165 51.499C234.211 52.3877 234.233 53.2479 234.233 54.0796C234.233 54.9113 234.233 55.6689 234.233 56.3525ZM254.929 51.1914C254.929 52.1826 254.861 53.1738 254.724 54.165C252.776 54.2904 250.839 54.4954 248.914 54.7803C246.988 55.0537 245.063 55.3271 243.137 55.6006C243.433 56.4209 243.895 57.076 244.521 57.5659C245.16 58.0558 245.917 58.3008 246.794 58.3008C247.25 58.3008 247.746 58.2153 248.281 58.0444C248.828 57.8735 249.369 57.6628 249.905 57.4121C250.44 57.1501 250.953 56.8709 251.443 56.5747C251.933 56.2785 252.354 56.0107 252.708 55.7715L251.887 63.5303C251.443 63.8721 250.959 64.1626 250.435 64.4019C249.922 64.6411 249.386 64.8348 248.828 64.9829C248.27 65.131 247.706 65.2393 247.136 65.3076C246.567 65.376 246.008 65.4102 245.461 65.4102C244.333 65.4102 243.302 65.2563 242.368 64.9487C241.434 64.6411 240.585 64.2139 239.822 63.667C239.07 63.1087 238.409 62.4536 237.839 61.7017C237.27 60.9497 236.797 60.1294 236.421 59.2407C236.045 58.3521 235.76 57.4121 235.566 56.4209C235.373 55.4297 235.276 54.4271 235.276 53.4131C235.276 52.3535 235.373 51.2939 235.566 50.2344C235.76 49.1748 236.051 48.1551 236.438 47.1753C236.837 46.1955 237.332 45.2897 237.925 44.458C238.529 43.6149 239.229 42.88 240.027 42.2534C240.824 41.6268 241.724 41.1369 242.727 40.7837C243.741 40.4305 244.858 40.2539 246.077 40.2539C247.091 40.2539 248.014 40.3963 248.845 40.6812C249.688 40.9546 250.435 41.342 251.084 41.8433C251.745 42.3332 252.314 42.9199 252.793 43.6035C253.283 44.2871 253.682 45.0391 253.989 45.8594C254.308 46.6683 254.542 47.5285 254.69 48.4399C254.849 49.34 254.929 50.2572 254.929 51.1914ZM248.093 50.3027C248.093 49.9837 248.059 49.659 247.991 49.3286C247.922 48.9868 247.808 48.6792 247.649 48.4058C247.501 48.1323 247.301 47.9102 247.051 47.7393C246.8 47.557 246.487 47.4658 246.111 47.4658C245.655 47.4658 245.251 47.5911 244.897 47.8418C244.556 48.0811 244.259 48.3887 244.009 48.7646C243.758 49.1292 243.553 49.528 243.394 49.9609C243.234 50.3939 243.114 50.7926 243.035 51.1572L248.093 50.6787V50.3027Z" fill="black"/>
</svg>
